PathFileType	4	(X/Y/Z)	C:/Users/beibeiliu/ov580/test_trc\sequence.14_training_dense_right.trc
DataRate	CameraRate	NumFrames	NumMarkers	Units	OrigDataRate	OrigDataStartFrame	OrigNumFrames
120	120	25	19	mm	120	37	73
Frame#	Time	ThumbCMC			ThumbMCP			ThumbIP			ThumbTip			IndexMCP			IndexPIP			IndexTip			MiddleMCP			MiddlePIP			MiddleTip			RingMCP			RingPIP			RingTip			PinkyMCP			PinkyPIP			PinkyTip			BackHand1			BackHand2			BackHand3	
		X0	Y0	Z0	X1	Y1	Z1	X2	Y2	Z2	X3	Y3	Z3	X4	Y4	Z4	X5	Y5	Z5	X6	Y6	Z6	X7	Y7	Z7	X8	Y8	Z8	X9	Y9	Z9	X10	Y10	Z10	X11	Y11	Z11	X12	Y12	Z12	X13	Y13	Z13	X14	Y14	Z14	X15	Y15	Z15	X16	Y16	Z16	X17	Y17	Z17	X18	Y18	Z18	
36	0.3	72.5133	105.984	27.244	71.2412	114.105	-4.56898	94.1181	117.174	-24.2665	114.589	103.879	-27.0265	103.653	153.321	-4.52784	103.699	169.078	-18.3116	109.773	181.628	-33.5552	121.834	148.392	-9.31998	131.417	159.733	-23.5601	142.419	179.638	-38.4928	135.073	125.601	-10.2897	145.995	140.431	-27.2958	155.271	152.481	-40.7998	142.22	100.444	-9.2125	156.352	107.686	-24.5081	164.069	115.174	-30.117	121.114	103.623	24.4272	116.641	92.3147	43.4329	101.029	111.536	40.8222	
37	0.308333	64.7807	98.071	26.774	58.0566	108.425	-7.74934	79.1053	117.872	-28.354	103.776	111.79	-30.8316	76.057	153.264	-9.47959	74.1681	167.618	-25.2362	66.8698	184.125	-40.455	99.0112	155.174	-15.3974	103.378	169.111	-31.5962	107.279	188.378	-48.0344	117.831	139.437	-14.1736	122.356	156.299	-31.9809	125.348	169.175	-43.2009	134.062	118.679	-13.4807	143.168	128.868	-26.2157	151.287	141.486	-33.8315	113.115	115.344	22.9454	114.552	103.29	40.4022	89.6645	120.604	33.7222	
38	0.316667	56.7916	94.8776	24.6193	50.1695	98.1263	-10.9998	67.4139	108.706	-32.4593	90.2998	108.279	-37.6	53.4463	144.88	-25.3377	45.3293	152.771	-42.023	38.9303	161.803	-61.2582	79.7407	148.725	-28.6253	74.2502	160.06	-46.4027	72.2965	177.283	-66.8195	97.9692	142.88	-27.6855	101.829	152.432	-41.167	100.55	166.625	-56.8617	118.999	125.291	-18.2758	126.653	131.919	-29.7997	132.24	146.143	-39.2125	99.5067	121.479	15.3082	101.013	114.219	35.8675	77.0735	124.251	28.3414	
39	0.325	48.1658	91.5508	22.2962	49.6275	89.2306	-14.7027	66.51	96.1376	-31.9645	87.3063	97.9955	-38.1816	42.0764	125.093	-31.8856	33.9052	126.267	-52.9277	26.4139	127.706	-75.1326	63.234	135.903	-42.5743	62.5869	140.875	-64.5042	61.1795	149.08	-87.2436	90.5886	134.526	-38.5677	89.2471	141.444	-55.3232	89.2962	150.889	-73.9637	108.419	125.651	-25.3059	118.625	131.406	-37.4897	125.622	143.409	-48.4126	91.7783	125.63	8.29052	94.3394	120.59	33.5629	64.0469	125.426	21.0023	
40	0.333333	45.2337	92.5909	20.9389	50.7908	76.9783	-8.97609	67.6691	79.0448	-28.8404	90.3815	87.4077	-33.2959	39.8278	108.539	-39.0949	38.3173	100.818	-60.0239	32.5074	92.4337	-83.657	66.0295	118.154	-47.9404	62.2676	114.182	-67.8645	62.0532	115.013	-95.0064	89.808	119.265	-39.0467	89.1496	120.97	-61.1594	92.6906	124.691	-79.3887	111.047	116.381	-25.4149	119.39	118.248	-39.5064	126.778	126.429	-51.0415	83.4742	124.811	3.94429	85.5949	128.743	29.4274	61.1449	123.659	15.7503	
41	0.341667	45.256	93.3883	24.7282	48.8886	67.0855	1.18599	69.2529	66.9298	-18.3057	94.3735	70.6332	-24.3433	41.3972	90.8711	-38.8626	41.2832	76.1153	-56.6234	37.1935	62.0934	-71.9192	66.741	95.4012	-50.0597	69.8647	85.8316	-67.9316	71.6425	76.2442	-92.1466	92.1092	98.7404	-41.4551	91.6592	93.6552	-57.602	98.0428	88.1869	-80.7033	111.966	98.6313	-20.6268	119.909	93.0565	-39.5251	130.119	95.0296	-48.1747	85.4598	120.117	3.56212	84.9218	125.338	23.6707	57.3209	121.197	12.8065	
42	0.35	46.9926	94.4832	27.0668	45.5503	64.3548	11.9654	64.6208	52.3111	-6.48526	90.9637	50.2584	-11.4944	47.9888	72.0786	-35.1563	44.7451	56.5958	-44.8689	39.2567	37.7827	-56.64	72.7076	70.21	-41.9166	72.0474	57.3846	-54.0241	70.4062	40.2195	-74.2585	90.1411	71.7403	-31.4736	93.1568	59.0013	-48.2113	92.9498	49.1361	-62.8701	113.366	71.5286	-12.5837	118.189	61.4902	-23.1805	127.058	54.8802	-38.3344	91.1346	105.79	4.39038	92.6991	116.661	22.2388	64.4613	113.175	7.97227	
43	0.358333	50.5198	97.2569	31.5311	43.0222	67.4959	20.3604	55.1286	48.2848	8.24506	75.8774	37.4466	5.00266	49.6625	63.9056	-22.5512	35.3888	42.4809	-33.0099	27.8335	26.2494	-38.3732	68.0857	52.9661	-24.9575	58.9533	34.2707	-37.8265	54.7519	15.6414	-50.2108	86.0505	48.5016	-17.9733	79.9822	28.6742	-31.2334	80.103	14.1934	-40.4583	106.246	43.409	-2.48619	102.071	30.5944	-10.6116	106.829	17.9006	-21.2322	97.5917	88.0651	8.77365	103.121	102.927	23.1375	79.2816	104.692	12.6306	
44	0.366667	65.1241	99.3003	32.4481	42.9309	79.002	28.0449	45.1276	54.6682	19.7554	59.7559	34.0622	18.5242	40.4699	62.1959	-15.4983	25.3849	50.1541	-18.3204	11.1884	30.4644	-21.1095	52.8382	44.4161	-13.3151	40.0751	26.6138	-18.8828	25.6371	10.3604	-27.6574	66.3526	32.2382	-4.26272	52.7732	18.1737	-11.5506	44.6916	4.13178	-16.4862	82.7344	29.6059	10.1773	74.8386	13.1213	6.10617	68.0122	2.48711	-3.86655	99.2036	68.3429	9.67806	113	85.6954	28.6971	88.9356	96.6303	13.7245	
45	0.375	77.3966	104.782	31.9517	45.6127	93.9219	29.9768	35.0254	69.9601	26.1852	41.4387	43.2928	29.9743	38.2931	74.6835	-6.58922	13.9045	71.6596	-8.55601	-9.6102	62.2134	-9.42377	37.0766	55.4161	-3.44712	18.0675	48.0218	-5.27139	-4.55449	33.712	-8.49131	47.9146	41.8003	8.58808	25.5708	30.622	5.35039	10.1975	21.2733	1.78458	59.0979	26.4497	24.0442	45.859	22.7639	23.0361	34.4952	5.94054	19.9544	90.8747	61.1601	15.7874	115.107	67.2319	28.0172	91.9586	88.9525	10.0123	
46	0.383333	84.9346	112.426	30.788	52.8985	111.247	32.7874	32.0754	89.8892	33.1799	31.6382	69.6796	39.6624	33.4132	96.7372	-1.93044	10.4168	95.9059	-1.70725	-15.8042	96.643	-1.87271	27.1912	73.6185	5.45314	3.5931	73.9729	3.66949	-20.6049	69.606	3.27816	33.1526	58.2145	17.1743	8.36209	54.9234	16.415	-11.3101	51.4418	15.6905	39.4172	39.8538	38.2089	21.7021	37.0877	41.9732	7.11944	33.4879	39.3349	76.0996	57.5539	21.713	101.675	59.6506	27.8836	90.8018	82.9859	12.5517	
47	0.391667	93.619	111.843	32.229	59.3884	127.626	33.396	35.9125	115.366	36.3257	29.5789	90.8808	43.7063	37.4773	115.791	-0.253841	12.7659	120.801	-1.32409	-5.23042	132.799	-5.09574	20.2044	94.2557	10.2122	-2.85346	103.055	7.05864	-26.3434	109.083	4.28857	23.6211	78.7428	24.187	-2.43449	81.3272	24.752	-19.26	85.9946	23.2444	26.5414	64.3306	46.7844	10.222	68.44	49.3887	-6.27853	65.3478	51.8212	67.9401	64.8001	25.8453	94.1562	62.0166	31.392	89.5589	85.282	15.2586	
48	0.4	96.057	113.119	29.2323	68.8852	136.49	29.8813	40.5573	129.344	32.6902	27.3415	114.228	42.7585	37.5389	126.489	-6.08958	26.9768	138.562	-11.3747	7.25704	149.026	-15.6639	20.0378	111.638	7.88317	3.26997	124.877	2.34335	-19.5516	135.922	-2.09682	18.1197	99.5394	22.2866	-0.29721	106.93	23.2457	-24.4482	116.224	22.1525	20.3842	85.527	49.7128	5.21411	91.2363	56.729	-11.1752	96.4211	55.9876	59.2335	72.7744	29.4742	78.5551	62.07	34.2227	83.112	85.0949	14.9816	
49	0.408333	92.5179	107.781	26.2543	69.5244	134.958	21.7759	46.8671	138.381	25.7492	26.9043	123.605	36.7879	45.2179	125.62	-12.2864	30.08	141.999	-25.2241	16.4441	155.383	-36.05	27.2807	118.758	-1.30431	3.62442	133.822	-7.61171	-11.2202	146.995	-15.1079	13.8839	110.257	19.5392	0.913604	123.402	13.6032	-19.6893	135.33	10.5266	15.8028	101.372	43.155	2.36909	111.873	51.4462	-12.2503	118.06	49.8116	49.0434	78.5536	27.5434	69.1567	66.5706	36.1117	76.7246	81.3719	14.598	
50	0.416667	90.4468	105.819	22.5072	71.5465	134.566	17.4363	47.4018	137.526	18.7238	22.9928	126.905	29.7715	48.1768	119.294	-22.6386	37.678	132.083	-36.7511	26.3692	143.324	-49.9134	23.6806	118.027	-11.665	11.6576	130.604	-20.2365	-10.0287	143.247	-28.2631	11.8781	111.079	12.4936	-0.371693	124.696	5.64179	-18.8414	139.017	-0.482376	10.3628	108.272	37.386	-1.05525	121.422	36.8814	-15.0528	130.117	43.0436	43.3994	80.6258	23.206	60.0896	64.5757	36.1497	70.9991	77.3544	17.3412	
51	0.425	90.9629	98.1447	22.2574	69.9358	124.268	8.27822	47.7312	130.115	8.97836	23.4667	124.742	18.6765	49.0331	105.185	-26.3931	40.6314	116.339	-42.8286	33.9233	125.471	-64.4185	26.8199	106.336	-16.9727	14.3956	119.153	-32.0438	-2.27122	133.221	-50.1489	11.5542	106.649	4.44934	-0.166802	122.711	-11.3828	-15.5507	134.746	-18.181	6.8149	110.229	26.5519	-1.29766	122.182	27.9351	-17.6287	136.872	22.2957	38.5392	76.9339	22.0617	51.4053	62.0771	41.7869	67.6623	70.3363	15.5088	
52	0.433333	89.1824	90.9455	18.281	72.8785	117.783	-0.191707	47.7014	121.065	-2.5297	24.9366	122.164	4.26698	50.5043	92.6036	-35.792	46.9415	98.044	-55.7031	35.0203	102.286	-75.5393	26.6261	95.165	-27.3599	20.202	104.759	-44.6075	2.02984	114.122	-62.0111	14.6099	100.326	-10.2927	4.11388	111.816	-23.5096	-9.55674	123.063	-37.1703	8.4044	105.786	14.3584	-0.827819	119.649	8.00189	-13.3009	130.946	0.921359	35.8041	72.3997	22.2343	53.0381	61.795	43.0176	64.212	65.942	18.085	
53	0.441667	91.4203	84.095	17.8387	78.2241	105.956	-9.22831	54.9403	109.937	-15.2269	25.9891	108.604	-8.61584	59.3322	71.277	-35.6072	53.3865	73.098	-54.6624	46.4816	71.9742	-75.7158	37.1728	75.8751	-32.8455	24.3296	81.3274	-55.0476	11.9949	85.374	-72.1966	18.3538	86.1058	-18.8989	10.6391	92.9545	-34.4706	3.28405	99.8194	-56.1673	11.554	96.9637	5.10343	2.78755	108.226	-3.82491	-7.25899	113.409	-18.8974	39.6176	66.2412	22.9559	51.8813	61.1379	43.875	68.9255	56.9555	19.0587	
54	0.45	94.1086	77.7292	18.6574	84.0133	89.6528	-11.2179	59.2977	88.7059	-23.9382	37.1403	90.5346	-21.2215	67.0425	47.1395	-35.6232	64.8886	41.7369	-56.2552	60.3093	36.1041	-72.3333	44.7393	52.0943	-33.5855	35.4008	50.2313	-56.2919	27.8213	47.5802	-74.4209	29.6226	64.3435	-23.9453	18.621	66.5101	-39.398	12.9666	66.3574	-58.6307	16.2064	80.8927	-6.33652	8.05692	87.176	-19.2532	-6.37848	89.4435	-33.4333	47.2622	58.9005	19.8128	55.1597	61.1154	46.7962	74.213	49.6582	22.2053	
55	0.458333	101.102	72.4465	18.7482	90.6263	72.4796	-13.3522	71.7248	69.3803	-26.2023	45.3807	65.2727	-22.8	85.2547	27.2851	-25.1572	80.6028	17.2417	-43.7719	78.7854	6.91143	-59.9403	59.7075	28.489	-24.4705	53.3338	19.4238	-44.5921	42.3884	8.21528	-66.0132	41.0034	41.4255	-15.7913	36.846	32.9393	-39.5246	24.9933	28.4959	-54.8789	28.6182	57.3068	-5.05106	15.9132	58.4928	-20.4722	8.29919	51.6265	-35.1359	56.3474	47.8075	24.4663	64.4859	59.4063	49.1806	88.0919	45.4452	28.8941	
56	0.466667	110.324	71.7923	20.9983	101.908	65.4212	-12.0524	85.2646	51.3516	-22.5398	62.6521	42.1404	-23.4337	106.208	17.1793	-14.2438	109.655	6.03981	-29.7701	109.866	-9.84513	-49.0333	84.4433	11.7928	-12.148	79.8818	-1.85718	-28.7345	76.5781	-19.04	-48.4187	66.3699	19.905	-7.41095	57.7328	5.84187	-25.6234	52.6725	-3.29891	-42.5001	47.4892	31.5863	-0.646834	34.6958	26.5003	-13.8913	25.7949	18.7631	-30.0662	71.68	40.3815	31.7114	76.2596	53.1466	52.7698	99.8311	44.7061	35.9365	
57	0.475	115.04	80.0327	24.5033	112.201	67.2977	-9.98159	100.723	47.1804	-23.559	84.9395	34.7847	-20.94	134.705	27.4821	-6.60157	139.846	12.4338	-23.9589	144.3	-0.221236	-44.3153	112.824	11.0019	-5.9155	118.818	-6.4599	-23.1087	118.981	-22.7069	-39.1764	91.8496	11.9653	-1.54758	94.4314	-3.23752	-18.5271	98.2881	-15.387	-37.5945	69.4	14.7312	3.17319	68.9963	6.30709	-11.3168	63.2191	-7.63269	-29.4016	93.5149	36.3766	34.9793	88.1431	47.5874	53.3508	113.659	49.6091	40.6585	
58	0.483333	114.823	86.0178	27.1714	115.116	81.5972	-6.73895	114.718	62.0992	-23.2989	103.985	36.9804	-21.6336	153.056	50.2049	-5.25143	168.727	44.2436	-24.2643	177.308	37.4124	-42.6137	141.749	28.7283	-4.81123	153.94	12.5935	-24.0837	167.689	2.06743	-42.5357	126.37	21.2749	-3.50684	131.491	5.53764	-22.2784	140.281	-1.36992	-37.5932	100.437	13.0332	1.09711	102.96	2.72586	-14.2979	105.831	-10.4469	-28.9256	107.733	37.3577	33.9	98.1245	46.6576	56.6423	123.426	59.5097	44.2517	
59	0.491667	107.41	91.6632	30.0372	110.871	94.7159	-6.43049	117.795	71.8852	-19.2994	116.305	50.8008	-24.9945	158.667	84.038	-5.39568	171.223	82.6875	-24.2427	183.496	81.143	-44.4157	158.886	56.2367	-11.7059	173.829	52.0313	-28.7854	187.531	47.9168	-45.2963	145.18	38.8747	-8.89067	157.389	32.5081	-26.944	166.919	29.098	-43.9541	123.872	24.2028	-4.2834	129.601	16.2273	-19.9847	138.826	10.5525	-35.2893	125.805	45.8601	26.1474	110.688	46.27	52.4776	127.467	68.5495	44.1626	
60	0.5	94.5673	98.6747	31.3767	97.9655	100.853	-2.53822	108.618	88.8438	-22.9761	116.67	64.9263	-31.7849	146.732	109.621	-11.3679	154.919	120.193	-30.969	164.697	127.562	-48.9861	151.729	88.3643	-15.2066	164.116	94.4311	-34.5873	182.03	93.3775	-58.3503	149.633	64.781	-19.5984	158.595	66.3277	-36.0898	170.437	68.0417	-54.1612	133.341	41.8366	-13.3958	143.776	42.9896	-32.0627	151.486	34.1631	-42.7278	131.222	58.3102	21.5177	119.817	52.7023	45.3524	127.613	81.9251	37.7416	
